<svg width="50" height="50" viewBox="0 0 50 50" fill="white" xmlns="http://www.w3.org/2000/svg">
<path d="M0 0V7.14286H7.14286V0H0ZM14.2857 0V7.14286H21.4286V0H14.2857ZM28.5714 0V7.14286H35.7143V0H28.5714ZM42.8571 0V7.14286H50V0H42.8571ZM0 14.2857V21.4286H7.14286V14.2857H0ZM14.2857 14.2857V21.4286H21.4286V14.2857H14.2857ZM28.5714 14.2857V21.4286H35.7143V14.2857H28.5714ZM42.8571 14.2857V21.4286H50V14.2857H42.8571ZM0 28.5714V35.7143H7.14286V28.5714H0ZM14.2857 28.5714V35.7143H21.4286V28.5714H14.2857ZM28.5714 28.5714V35.7143H35.7143V28.5714H28.5714ZM42.8571 28.5714V35.7143H50V28.5714H42.8571ZM0 42.8571V50H7.14286V42.8571H0ZM14.2857 42.8571V50H21.4286V42.8571H14.2857ZM28.5714 42.8571V50H35.7143V42.8571H28.5714ZM42.8571 42.8571V50H50V42.8571H42.8571Z" fill="white"/>
</svg>
